<svg xmlns="http://www.w3.org/2000/svg" xmlns:xlink="http://www.w3.org/1999/xlink" xml:space="preserve" version="1.1" style="shape-rendering:geometricPrecision;text-rendering:geometricPrecision;image-rendering:optimizeQuality;" viewBox="0 0 234 333.75" x="0px" y="0px" fill-rule="evenodd" clip-rule="evenodd"><defs><style type="text/css">
   
    .fil0 {fill:white}
   
  </style></defs><g><path class="fil0" d="M16 228c-21,0 -21,-31 0,-31 17,0 18,-60 18,-81 0,-50 30,-79 64,-86 -6,-14 4,-30 19,-30 15,0 25,16 19,30 34,7 64,36 64,86 0,21 1,81 18,81 21,0 21,31 0,31l-202 0z"/><path class="fil0" d="M135 235c8,14 -2,32 -18,32 -16,0 -26,-18 -18,-32l36 0z"/></g><text x="0" y="282" fill="#ffffff" font-size="5px" font-weight="bold" font-family="'Helvetica Neue', Helvetica, Arial-Unicode, Arial, Sans-serif">Created by Aisyah</text><text x="0" y="287" fill="##ffffff" font-size="5px" font-weight="bold" font-family="'Helvetica Neue', Helvetica, Arial-Unicode, Arial, Sans-serif">from the Noun Project</text></svg>