<svg xmlns="http://www.w3.org/2000/svg" xmlns:xlink="http://www.w3.org/1999/xlink" viewBox="0 0 32 41.25" version="1.1" x="0px" y="0px"><title>magnifier</title><desc>Created with Sketch.</desc><g stroke="none" stroke-width="1" fill="none" fill-rule="evenodd"><g fill="#f5f5f5" fill-rule="nonzero"><path d="M22.00815,12.96285 C22.00815,7.96709344 17.9585392,3.91735 12.96265,3.91735 C7.96707712,3.91735 3.91715,7.96727712 3.91715,12.96285 C3.91715,17.9584229 7.96707712,22.00835 12.96265,22.00835 C17.9585392,22.00835 22.00815,17.9586066 22.00815,12.96285 Z M25.00815,12.96285 C25.00815,19.6154388 19.6154154,25.00835 12.96265,25.00835 C6.31022288,25.00835 0.91715,19.6152771 0.91715,12.96285 C0.91715,6.31042288 6.31022288,0.91735 12.96265,0.91735 C19.6154154,0.91735 25.00815,6.31026118 25.00815,12.96285 Z"/><path d="M22.2396721,26.015787 L22.1291909,25.9050208 C20.6383243,24.4103117 19.9315185,23.7047005 19.0759359,22.8609688 C18.083376,21.8825409 17.806483,20.8095803 18.7809081,19.8537839 C19.7546778,18.8991494 20.7933695,19.2021094 21.7860055,20.1947455 C22.8576522,21.2673038 23.8403411,22.2504422 25.5647178,23.9753338 L26.194609,24.6054113 C28.2446169,26.6560295 29.3591084,27.7710779 30.6032801,29.0165199 C31.591009,30.0042488 31.8707892,31.0714684 30.8774725,32.0293095 C29.8931975,32.9781535 28.8736568,32.6809268 27.8858264,31.6728332 C27.0249708,30.7945298 26.312996,30.0810777 24.7666459,28.5410345 L24.7026069,28.4772568 C24.1132006,27.8902544 23.8257477,27.6036922 23.4857101,27.2637703 C23.1350919,26.9132713 22.8294302,26.6070645 22.2396721,26.015787 Z"/></g></g><text x="0" y="48" fill="#000000" font-size="5px" font-weight="bold" font-family="'Helvetica Neue', Helvetica, Arial-Unicode, Arial, Sans-serif">Created by Ilaria Niccolini</text><text x="0" y="53" fill="#000000" font-size="5px" font-weight="bold" font-family="'Helvetica Neue', Helvetica, Arial-Unicode, Arial, Sans-serif">from the Noun Project</text></svg>